HIERARCHY
ROOT Hips
{
	OFFSET 0.00000 0.00000 0.00000
	CHANNELS 6 Xposition Yposition Zposition Zrotation Yrotation Xrotation 
	JOINT LHipJoint
	{
		OFFSET 0 0 0
		CHANNELS 3 Zrotation Yrotation Xrotation
		JOINT LeftUpLeg
		{
			OFFSET 1.57338 -1.94743 0.52196
			CHANNELS 3 Zrotation Yrotation Xrotation
			JOINT LeftLeg
			{
				OFFSET 2.60333 -7.15259 0.00000
				CHANNELS 3 Zrotation Yrotation Xrotation
				JOINT LeftFoot
				{
					OFFSET 2.77855 -7.63400 0.00000
					CHANNELS 3 Zrotation Yrotation Xrotation
					JOINT LeftToeBase
					{
						OFFSET 0.19847 -0.54529 2.28466
						CHANNELS 3 Zrotation Yrotation Xrotation
						End Site
						{
							OFFSET 0.00000 -0.00000 1.17993
						}
					}
				}
			}
		}
	}
	JOINT RHipJoint
	{
		OFFSET 0 0 0
		CHANNELS 3 Zrotation Yrotation Xrotation
		JOINT RightUpLeg
		{
			OFFSET -1.61527 -1.94743 0.52196
			CHANNELS 3 Zrotation Yrotation Xrotation
			JOINT RightLeg
			{
				OFFSET -2.53829 -6.97390 0.00000
				CHANNELS 3 Zrotation Yrotation Xrotation
				JOINT RightFoot
				{
					OFFSET -2.80762 -7.71387 0.00000
					CHANNELS 3 Zrotation Yrotation Xrotation
					JOINT RightToeBase
					{
						OFFSET -0.30536 -0.83898 2.28801
						CHANNELS 3 Zrotation Yrotation Xrotation
						End Site
						{
							OFFSET -0.00000 -0.00000 1.21323
						}
					}
				}
			}
		}
	}
	JOINT LowerBack
	{
		OFFSET 0 0 0
		CHANNELS 3 Zrotation Yrotation Xrotation
		JOINT Spine
		{
			OFFSET -0.04381 1.99497 -0.19778
			CHANNELS 3 Zrotation Yrotation Xrotation
			JOINT Spine1
			{
				OFFSET -0.01959 2.01295 -0.04372
				CHANNELS 3 Zrotation Yrotation Xrotation
				JOINT Neck
				{
					OFFSET 0 0 0
					CHANNELS 3 Zrotation Yrotation Xrotation
					JOINT Neck1
					{
						OFFSET -0.05459 1.76913 0.09708
						CHANNELS 3 Zrotation Yrotation Xrotation
						JOINT Head
						{
							OFFSET 0.09461 1.77368 -0.11172
							CHANNELS 3 Zrotation Yrotation Xrotation
							End Site
							{
								OFFSET 0.03812 1.78157 -0.04834
							}
						}
					}
				}
				JOINT LeftShoulder
				{
					OFFSET 0 0 0
					CHANNELS 3 Zrotation Yrotation Xrotation
					JOINT LeftArm
					{
						OFFSET 3.50922 1.24034 -0.28866
						CHANNELS 3 Zrotation Yrotation Xrotation
						JOINT LeftForeArm
						{
							OFFSET 5.40188 -0.00000 0.00000
							CHANNELS 3 Zrotation Yrotation Xrotation
							JOINT LeftHand
							{
								OFFSET 3.68559 -0.00000 0.00000
								CHANNELS 3 Zrotation Yrotation Xrotation
								JOINT LeftFingerBase
								{
									OFFSET 0 0 0
									CHANNELS 3 Zrotation Yrotation Xrotation
									JOINT LeftHandIndex1
									{
										OFFSET 0.61753 -0.00000 0.00000
										CHANNELS 3 Zrotation Yrotation Xrotation
										End Site
										{
											OFFSET 0.49787 -0.00000 0.00000
										}
									}
								}
								JOINT LThumb
								{
									OFFSET 0 0 0
									CHANNELS 3 Zrotation Yrotation Xrotation
									End Site
									{
										OFFSET 0.50547 -0.00000 0.50547
									}
								}
							}
						}
					}
				}
				JOINT RightShoulder
				{
					OFFSET 0 0 0
					CHANNELS 3 Zrotation Yrotation Xrotation
					JOINT RightArm
					{
						OFFSET -2.95373 1.39649 -0.27346
						CHANNELS 3 Zrotation Yrotation Xrotation
						JOINT RightForeArm
						{
							OFFSET -6.10670 -0.00000 -0.00000
							CHANNELS 3 Zrotation Yrotation Xrotation
							JOINT RightHand
							{
								OFFSET -3.63052 -0.00000 0.00000
								CHANNELS 3 Zrotation Yrotation Xrotation
								JOINT RightFingerBase
								{
									OFFSET 0 0 0
									CHANNELS 3 Zrotation Yrotation Xrotation
									JOINT RightHandIndex1
									{
										OFFSET -0.58385 -0.00000 0.00000
										CHANNELS 3 Zrotation Yrotation Xrotation
										End Site
										{
											OFFSET -0.47071 -0.00000 0.00000
										}
									}
								}
								JOINT RThumb
								{
									OFFSET 0 0 0
									CHANNELS 3 Zrotation Yrotation Xrotation
									End Site
									{
										OFFSET -0.47790 -0.00000 0.47790
									}
								}
							}
						}
					}
				}
			}
		}
	}
}
MOTION
Frames: 12
Frame Time: .0083333
2.0289 18.9059 -4.4295 1.7037 -12.0287 -3.8849 0.0000 0.0000 0.0000 0.0000 0.0000 0.0000 0.0000 0.0000 0.0000 0.0000 0.0000 0.0000 0.0000 0.0000 0.0000 0.0000 0.0000 0.0000 17.5797 17.5623 11.5144 -0.3727 -3.9212 10.8552 0.2675 -14.7465 -17.7284 -0.1472 2.4728 -6.8142 -2.2723 1.0373 6.2889 -1.2252 1.1945 1.2030 -0.0835 0.6059 -2.3054 -6.6088 -3.4791 -3.1644 6.4096 -4.7244 6.3948 3.1318 -2.3195 3.0040 0.0000 -0.0000 0.0000 -76.8899 12.5850 24.1462 94.0348 -59.9384 -63.4935 -0.0000 -0.0000 11.5117 41.3802 25.5713 20.8204 -7.1250 0.0000 -0.0000 14.6505 61.9160 6.1002 0.0000 -0.0000 0.0000 49.9242 47.3118 31.9911 -148.8784 41.8356 -107.8492 0.0000 -0.0000 -13.0318 -34.5999 -10.2294 6.9845 7.1250 -0.0000 -0.0000 -6.8324 -42.2450 -0.4668
2.0287 18.9068 -4.4326 1.7519 -11.9773 -3.8532 0.0000 0.0000 0.0000 0.0000 0.0000 0.0000 0.0000 0.0000 0.0000 0.0000 0.0000 0.0000 0.0000 0.0000 0.0000 0.0000 0.0000 0.0000 17.5204 17.5764 11.4677 -0.3733 -3.9245 10.8642 0.2694 -14.7587 -17.7235 -0.1532 2.5222 -6.9513 -2.3379 1.0078 6.2762 -1.2174 1.1513 1.1884 -0.0351 0.5850 -2.3141 -6.6453 -3.4662 -2.9446 6.3930 -4.7185 6.4478 3.1357 -2.3217 2.9807 -0.0000 0.0000 0.0000 -76.9574 12.6138 24.1571 94.2370 -59.9321 -63.6685 -0.0000 -0.0000 11.5818 41.0577 25.1919 20.3431 -7.1250 0.0000 -0.0000 14.1914 61.3802 5.7246 -0.0000 0.0000 0.0000 50.2381 47.1080 32.3967 -148.9657 41.7636 -107.9073 0.0000 -0.0000 -13.2248 -34.4392 -10.7820 7.3100 7.1250 -0.0000 -0.0000 -6.6929 -42.8835 -0.3513
2.0293 18.9072 -4.4327 1.7640 -11.9621 -3.8462 0.0000 0.0000 0.0000 0.0000 0.0000 0.0000 0.0000 0.0000 0.0000 0.0000 0.0000 0.0000 0.0000 0.0000 0.0000 0.0000 0.0000 0.0000 17.5087 17.5928 11.4512 -0.3756 -3.9363 10.8975 0.2775 -14.8303 -17.7351 -0.1555 2.5410 -7.0034 -2.3405 0.9811 6.2316 -1.2029 1.1177 1.1972 -0.0151 0.5680 -2.2799 -6.6330 -3.4092 -2.7315 6.3603 -4.6567 6.5504 3.1272 -2.2953 2.9690 0.0000 -0.0000 0.0000 -77.0189 12.6036 24.1734 94.3222 -59.9293 -63.7423 -0.0000 -0.0000 11.6483 40.6429 24.7547 19.7706 -7.1250 0.0000 -0.0000 13.6186 60.7516 5.2851 0.0000 -0.0000 0.0000 50.6374 46.9358 32.9063 -148.9873 41.7458 -107.9217 0.0000 -0.0000 -13.3694 -34.8017 -9.8596 6.7873 7.1250 -0.0000 -0.0000 -7.0085 -41.8271 -0.5516
2.0298 18.9076 -4.4344 1.7596 -11.9680 -3.8181 0.0000 0.0000 0.0000 0.0000 0.0000 0.0000 0.0000 0.0000 0.0000 0.0000 0.0000 0.0000 0.0000 0.0000 0.0000 0.0000 0.0000 0.0000 17.5022 17.6100 11.3966 -0.3781 -3.9490 10.9332 0.2807 -14.8621 -17.7460 -0.1559 2.5443 -7.0124 -2.3328 0.9722 6.2071 -1.1953 1.1075 1.1973 -0.0102 0.5628 -2.2659 -6.5610 -3.3965 -2.6641 6.2795 -4.6513 6.7881 3.0875 -2.2945 3.0312 0.0000 -0.0000 0.0000 -77.0529 12.5758 24.2283 94.4091 -59.9264 -63.8174 -0.0000 -0.0000 11.6656 40.5343 24.5048 19.5284 -7.1250 0.0000 -0.0000 13.4680 60.4287 5.1218 0.0000 -0.0000 0.0000 51.1089 46.7519 33.3985 -148.9783 41.7532 -107.9157 0.0000 -0.0000 -13.3941 -35.9693 -6.0745 4.3915 7.1250 -0.0000 -0.0000 -7.8719 -37.3665 -1.4900
2.0294 18.9086 -4.4363 1.7881 -11.9800 -3.7464 0.0000 0.0000 0.0000 0.0000 0.0000 0.0000 0.0000 0.0000 0.0000 0.0000 0.0000 0.0000 0.0000 0.0000 0.0000 0.0000 0.0000 0.0000 17.4480 17.6585 11.2901 -0.3799 -3.9585 10.9601 0.2815 -14.8669 -17.7436 -0.1587 2.5666 -7.0742 -2.3647 0.9703 6.1653 -1.2104 1.1032 1.1644 -0.0073 0.5611 -2.2768 -6.4552 -3.3967 -2.5788 6.2190 -4.6671 7.0209 3.0478 -2.3030 3.0896 -0.0000 -0.0000 0.0000 -77.0676 12.6149 24.3358 94.7246 -59.9155 -64.0904 -0.0000 -0.0000 11.6397 40.7877 24.8227 19.9111 -7.1250 0.0000 -0.0000 13.8140 60.8719 5.4022 -0.0000 -0.0000 0.0000 51.5632 46.4922 33.8346 -148.9909 41.7428 -107.9241 0.0000 -0.0000 -13.4919 -35.5827 -6.0944 4.3438 7.1250 -0.0000 -0.0000 -7.5420 -37.3637 -1.4272
2.0294 18.9090 -4.4363 1.8125 -12.0071 -3.6632 0.0000 0.0000 0.0000 0.0000 0.0000 0.0000 0.0000 0.0000 0.0000 0.0000 0.0000 0.0000 0.0000 0.0000 0.0000 0.0000 0.0000 0.0000 17.3939 17.7252 11.1826 -0.3821 -3.9697 10.9914 0.2776 -14.8463 -17.7613 -0.1543 2.5310 -6.9757 -2.3801 0.9687 6.0834 -1.2207 1.1019 1.1248 -0.0080 0.5608 -2.2719 -6.3502 -3.3811 -2.4853 6.1451 -4.6619 7.2820 3.0048 -2.3016 3.1543 0.0000 -0.0000 0.0000 -77.0776 12.6645 24.4820 95.1512 -59.8995 -64.4595 -0.0000 -0.0000 11.6083 41.1345 25.6611 20.7181 -7.1250 0.0000 -0.0000 14.3140 61.9499 5.9683 0.0000 -0.0000 0.0000 51.9770 46.1896 34.2651 -149.0600 41.6857 -107.9701 0.0000 -0.0000 -13.7625 -35.3347 -6.2715 4.4285 7.1250 -0.0000 -0.0000 -7.3392 -37.5607 -1.3526
2.0287 18.9094 -4.4384 1.8165 -12.0272 -3.6235 0.0000 0.0000 0.0000 0.0000 0.0000 0.0000 0.0000 0.0000 0.0000 0.0000 0.0000 0.0000 0.0000 0.0000 0.0000 0.0000 0.0000 0.0000 17.3902 17.8050 11.1307 -0.3851 -3.9850 11.0345 0.2754 -14.8478 -17.7940 -0.1485 2.4831 -6.8428 -2.4159 0.9672 6.0672 -1.1941 1.0982 1.0955 0.0396 0.5597 -2.2942 -6.3806 -3.3705 -2.4036 6.1235 -4.6605 7.5640 3.0056 -2.3041 3.2361 0.0000 -0.0000 0.0000 -77.1365 12.6825 24.5732 95.3644 -59.8910 -64.6440 -0.0000 -0.0000 11.6672 41.2403 26.0538 21.0591 -7.1250 0.0000 -0.0000 14.4753 62.4376 6.2038 0.0000 -0.0000 0.0000 52.3221 45.8929 34.6558 -149.1799 41.5861 -108.0497 0.0000 -0.0000 -14.0521 -35.2220 -6.5499 4.6042 7.1250 -0.0000 -0.0000 -7.2567 -37.8890 -1.2785
2.0284 18.9104 -4.4380 1.8335 -12.0234 -3.6244 0.0000 0.0000 0.0000 0.0000 0.0000 0.0000 0.0000 0.0000 0.0000 0.0000 0.0000 0.0000 0.0000 0.0000 0.0000 0.0000 0.0000 0.0000 17.3735 17.8129 11.1141 -0.3870 -3.9951 11.0628 0.2830 -14.9094 -17.7961 -0.1520 2.5126 -6.9247 -2.4486 0.9598 6.0682 -1.1810 1.0863 1.0871 0.0722 0.5541 -2.3040 -6.4641 -3.3419 -2.2979 6.1899 -4.6398 7.8270 3.0483 -2.2963 3.3110 -0.0000 0.0000 0.0000 -77.1809 12.7198 24.6336 95.4860 -59.8860 -64.7492 -0.0000 -0.0000 11.7834 41.2282 26.0021 21.0155 -7.1250 0.0000 -0.0000 14.4564 62.3740 6.1738 -0.0000 0.0000 0.0000 52.6430 45.6096 35.0075 -149.2754 41.5064 -108.1131 0.0000 -0.0000 -14.3300 -35.1087 -6.5836 4.6084 7.1250 -0.0000 -0.0000 -7.1607 -37.9212 -1.2557
2.0283 18.9114 -4.4371 1.8511 -12.0135 -3.6261 0.0000 0.0000 0.0000 0.0000 0.0000 0.0000 0.0000 0.0000 0.0000 0.0000 0.0000 0.0000 0.0000 0.0000 0.0000 0.0000 0.0000 0.0000 17.3503 17.8009 11.1134 -0.3874 -3.9967 11.0675 0.2824 -14.9062 -17.7994 -0.1533 2.5229 -6.9531 -2.4573 0.9608 6.0669 -1.1932 1.0869 1.0855 0.0644 0.5544 -2.3049 -6.4638 -3.3241 -2.2157 6.2262 -4.6367 8.1423 3.0641 -2.2955 3.4058 0.0000 -0.0000 0.0000 -77.1504 12.7211 24.7575 95.6089 -59.8808 -64.8555 -0.0000 -0.0000 11.8056 41.1214 25.8897 20.8665 -7.1250 0.0000 -0.0000 14.3036 62.2124 6.0526 0.0000 -0.0000 0.0000 52.9815 45.3452 35.3077 -149.3422 41.4506 -108.1573 0.0000 -0.0000 -14.6225 -34.9171 -6.7709 4.7048 7.1250 -0.0000 -0.0000 -7.0041 -38.1324 -1.1914
2.0276 18.9118 -4.4393 1.8176 -12.0083 -3.6112 0.0000 0.0000 0.0000 0.0000 0.0000 0.0000 0.0000 0.0000 0.0000 0.0000 0.0000 0.0000 0.0000 0.0000 0.0000 0.0000 0.0000 0.0000 17.3934 17.8304 11.1147 -0.3877 -3.9985 11.0724 0.2701 -14.8185 -17.8152 -0.1497 2.4936 -6.8719 -2.4488 0.9589 6.0970 -1.1730 1.0840 1.0724 0.0801 0.5533 -2.3354 -6.4419 -3.3362 -2.1497 6.2099 -4.6703 8.4712 3.0557 -2.3136 3.5087 0.0000 -0.0000 0.0000 -77.1594 12.6622 24.8522 95.6288 -59.8799 -64.8727 -0.0000 -0.0000 11.7573 40.7878 25.6801 20.5005 -7.1250 0.0000 -0.0000 13.8365 61.8724 5.7396 0.0000 -0.0000 0.0000 53.3455 45.0841 35.6548 -149.4285 41.3783 -108.2144 0.0000 -0.0000 -14.8235 -34.7282 -7.6476 5.2704 7.1250 -0.0000 -0.0000 -6.8758 -39.1708 -0.9931
2.0282 18.9104 -4.4356 1.8076 -12.0002 -3.6089 0.0000 0.0000 0.0000 0.0000 0.0000 0.0000 0.0000 0.0000 0.0000 0.0000 0.0000 0.0000 0.0000 0.0000 0.0000 0.0000 0.0000 0.0000 17.3915 17.7837 11.0966 -0.3893 -4.0063 11.0945 0.2666 -14.7910 -17.8166 -0.1540 2.5289 -6.9698 -2.4281 0.9495 6.0357 -1.1549 1.0760 1.0979 0.0891 0.5486 -2.2747 -6.4385 -3.3740 -2.0815 6.1393 -4.7302 8.7358 3.0301 -2.3471 3.5896 -0.0000 0.0000 0.0000 -77.2179 12.6151 24.9026 95.6774 -59.8779 -64.9148 -0.0000 -0.0000 11.7420 40.7297 25.4681 20.3172 -7.1250 0.0000 -0.0000 13.7526 61.6090 5.6183 -0.0000 0.0000 0.0000 53.7166 44.8589 36.1037 -149.4923 41.3246 -108.2566 0.0000 -0.0000 -14.9469 -34.6812 -8.1662 5.6135 7.1250 -0.0000 -0.0000 -6.8526 -39.7882 -0.8851
2.0289 18.9092 -4.4317 1.8625 -12.0076 -3.6276 0.0000 0.0000 0.0000 0.0000 0.0000 0.0000 0.0000 0.0000 0.0000 0.0000 0.0000 0.0000 0.0000 0.0000 0.0000 0.0000 0.0000 0.0000 17.3159 17.7326 11.0839 -0.3902 -4.0112 11.1083 0.2672 -14.7984 -17.8207 -0.1561 2.5458 -7.0167 -2.4990 0.9464 5.9584 -1.1386 1.0716 1.1415 0.1477 0.5460 -2.1881 -6.4447 -3.3654 -1.9978 6.0941 -4.7301 9.0009 3.0182 -2.3506 3.6649 0.0000 0.0000 0.0000 -77.2964 12.5994 24.9505 95.8158 -59.8718 -65.0344 -0.0000 -0.0000 11.7992 40.9303 25.4396 20.4301 -7.1250 0.0000 -0.0000 14.0260 61.6330 5.7404 0.0000 0.0000 0.0000 54.0136 44.6893 36.5491 -149.5225 41.2992 -108.2765 0.0000 -0.0000 -15.1631 -34.7584 -7.9079 5.4537 7.1250 -0.0000 -0.0000 -6.9118 -39.4856 -0.9445
